<?xml version="1.0" encoding="UTF-8"?>
<svg id="a" data-name="Layer 1" xmlns="http://www.w3.org/2000/svg" width="116" height="58" viewBox="0 0 116 58">
  <g>
    <path d="M67.79,13.04c1.16,3.08,2.4,6.37,3.72,9.88,1.32,3.51,2.65,6.96,3.99,10.34,1.34,3.38,2.64,6.6,3.91,9.64,1.27,3.04,2.42,5.61,3.48,7.71-.87-.08-1.69-.12-2.47-.12h-4.62c-.78,0-1.55,.04-2.31,.12-.58-1.78-1.18-3.6-1.79-5.45-.62-1.85-1.27-3.71-1.95-5.56-1.16-.04-2.32-.07-3.47-.09-1.16-.02-2.32-.03-3.48-.03-.94,0-1.88,0-2.82,.03-.94,.02-.56,.05-1.5,.09l1.41-3.19h8.61c-.8-2.2-1.59-4.36-2.36-6.48-.78-2.11-1.6-4.25-2.47-6.42l4.13-10.48Z" style="fill: #009ee2;"/>
    <path d="M92.88,43.87c.04,2.83,.16,5.07,.38,6.74-.61-.08-1.29-.12-2.01-.12h-4.89c-.73,0-1.4,.04-2.01,.12,.15-2.24,.26-4.54,.34-6.87,.08-2.34,.12-5.01,.12-8.01v-7.39c0-3.01-.04-5.68-.12-8.01-.08-2.33-.19-4.68-.34-7.04,.62,.08,1.29,.15,2.01,.2,.73,.06,1.54,.09,2.45,.09s1.72-.03,2.45-.09c.72-.06,1.4-.13,2.01-.2-.18,1.09-.3,2.72-.35,4.89-.06,2.17-.08,4.58-.08,7.23v5.22c1.23-1.45,2.55-3.03,3.96-4.75,1.41-1.72,2.77-3.4,4.07-5.03,1.3-1.63,2.48-3.12,3.53-4.48,1.05-1.36,1.81-2.38,2.28-3.07,.51,.08,1.01,.15,1.52,.2,.51,.06,1.01,.09,1.52,.09s1.02-.03,1.55-.09c.53-.06,1.1-.13,1.71-.2-.61,.62-1.56,1.61-2.82,2.99-1.26,1.38-2.61,2.86-4.04,4.46-1.43,1.59-2.8,3.14-4.1,4.65-1.3,1.5-2.32,2.69-3.04,3.56,1.16,1.78,2.44,3.73,3.85,5.87,1.41,2.14,2.81,4.23,4.21,6.28,1.39,2.05,2.69,3.93,3.88,5.65,1.2,1.72,2.15,3.01,2.88,3.88-1.05-.08-1.99-.12-2.82-.12h-4.8c-.78,0-1.57,.04-2.36,.12-1.85-2.75-3.66-5.55-5.43-8.39-1.77-2.84-3.58-5.68-5.43-8.5h-.11c0,3.95,.02,7.33,.05,10.16" style="fill: #243487;"/>
  </g>
  <polygon points="59.96 1.1 44.63 17.94 48.59 17.94 33.23 56.88 37.96 56.88 59.96 1.1" style="fill: #e5007e;"/>
  <polygon points="42.18 56.88 57.51 40.04 53.55 40.04 68.91 1.1 64.17 1.1 42.18 56.88" style="fill: #93c01f;"/>
  <path d="M27.88,23.49c-.5-.77-1.12-1.44-1.87-2.02-.75-.58-1.59-1.03-2.54-1.35-.94-.32-1.93-.49-2.96-.49-1.88,0-3.49,.35-4.8,1.05-1.32,.7-2.38,1.64-3.2,2.81-.82,1.17-1.41,2.51-1.79,4.01-.37,1.5-.56,3.05-.56,4.65s.19,3.02,.56,4.47c.37,1.45,.97,2.75,1.79,3.91,.82,1.16,1.89,2.09,3.2,2.78,1.32,.7,2.92,1.05,4.8,1.05,2.56,0,4.56-.75,6-2.25,1.44-1.5,2.32-3.48,2.64-5.93h8.11c-.21,2.28-.77,4.34-1.66,6.18-.89,1.84-2.06,3.41-3.52,4.7-1.46,1.3-3.17,2.28-5.12,2.96-1.96,.68-4.11,1.02-6.46,1.02-2.92,0-5.54-.49-7.87-1.46-2.33-.97-4.3-2.31-5.9-4.01-1.6-1.7-2.83-3.7-3.68-6-.85-2.3-1.28-4.78-1.28-7.43s.43-5.25,1.28-7.59c.85-2.33,2.08-4.37,3.68-6.11,1.6-1.74,3.56-3.1,5.9-4.09,2.33-.99,4.95-1.48,7.87-1.48,2.1,0,4.08,.29,5.95,.87,1.87,.58,3.54,1.42,5.02,2.53,1.47,1.11,2.69,2.48,3.65,4.11,.96,1.63,1.57,3.51,1.81,5.62h-8.11c-.14-.92-.46-1.76-.96-2.53" style="fill: #243487;"/>
</svg>