<svg width="20" height="19" viewBox="0 0 20 19" fill="none" xmlns="http://www.w3.org/2000/svg">
<path d="M4.16699 12.2646H3.33366C2.89163 12.2646 2.46771 12.089 2.15515 11.7765C1.84259 11.4639 1.66699 11.04 1.66699 10.5979V3.09794C1.66699 2.65591 1.84259 2.23199 2.15515 1.91943C2.46771 1.60687 2.89163 1.43127 3.33366 1.43127H10.8337C11.2757 1.43127 11.6996 1.60687 12.0122 1.91943C12.3247 2.23199 12.5003 2.65591 12.5003 3.09794V3.93127M9.16699 7.26461H16.667C17.5875 7.26461 18.3337 8.0108 18.3337 8.93127V16.4313C18.3337 17.3517 17.5875 18.0979 16.667 18.0979H9.16699C8.24652 18.0979 7.50033 17.3517 7.50033 16.4313V8.93127C7.50033 8.0108 8.24652 7.26461 9.16699 7.26461Z" stroke="white" stroke-width="1.64706" stroke-linecap="round" stroke-linejoin="round"/>
</svg>
