<svg width="26" height="26" viewBox="0 0 26 26" fill="none" xmlns="http://www.w3.org/2000/svg">
<path d="M25.25 13C25.25 19.7655 19.7655 25.25 13 25.25C6.23451 25.25 0.75 19.7655 0.75 13C0.75 6.23451 6.23451 0.75 13 0.75C19.7655 0.75 25.25 6.23451 25.25 13Z" fill="url(#paint0_linear_24_7542)"/>
<path d="M17.562 16.7464L18.1061 13.2888H14.7021V11.0461C14.7021 10.1 15.1767 9.17718 16.7014 9.17718H18.25V6.23362C18.25 6.23362 16.8452 6 15.5027 6C12.698 6 10.8665 7.65632 10.8665 10.6536V13.2888H7.75V16.7464H10.8665V25.1052C11.4921 25.201 12.1322 25.25 12.7843 25.25C13.4363 25.25 14.0764 25.201 14.7021 25.1052V16.7464H17.562Z" fill="white"/>
<defs>
<linearGradient id="paint0_linear_24_7542" x1="13" y1="0.75" x2="13" y2="25.1773" gradientUnits="userSpaceOnUse">
<stop stop-color="#18ACFE"/>
<stop offset="1" stop-color="#0163E0"/>
</linearGradient>
</defs>
</svg>
