<svg xmlns="http://www.w3.org/2000/svg" xml:space="preserve" id="Laag_1" x="0" y="0" style="enable-background:new 0 0 335.03 170.08" version="1.1" viewBox="23.43 29.28 285.38 111.21"><style>.st0{fill:#0086cd}</style><path d="M228.12 73.21h-1.47c-.35 0-.65 0-.88-.52l-3.22-7.07c-.04-.09-.09-.12-.13-.12-.04 0-.07.03-.07.12v7.3c0 .16-.12.29-.28.29h-1.23c-.16 0-.29-.13-.29-.29v-9.91c0-.32.26-.58.58-.58h1.57c.3 0 .46.09.64.46l3.38 7.46c.03.07.07.12.12.12.03 0 .07-.04.07-.13v-7.63c0-.16.12-.28.28-.28h1.25c.16 0 .28.12.28.28v9.93c-.02.31-.28.57-.6.57zM237.42 69.79h-4.73v.04c0 .84.35 1.84 1.74 1.84 1.06 0 2.06-.09 2.67-.15h.04c.14 0 .26.07.26.22v.96c0 .23-.04.33-.3.38-.94.17-1.51.25-2.82.25-1.45 0-3.51-.78-3.51-3.64v-1.07c0-2.26 1.26-3.69 3.48-3.69 2.23 0 3.45 1.52 3.45 3.69v.81c.01.23-.08.36-.28.36zm-1.64-1.42c0-1.13-.62-1.78-1.52-1.78s-1.55.64-1.55 1.78v.06h3.08v-.06zM245.73 72.95c-.9.23-1.99.38-2.92.38-2.34 0-3.47-1.38-3.47-3.64v-1.12c0-2.26 1.13-3.64 3.47-3.64.35 0 .86.03 1.39.1v-2.57c0-.16.13-.29.29-.29h1.33c.16 0 .29.13.29.29v10.1c.02.22-.04.31-.38.39zm-1.52-6.35c-.41-.06-1.04-.1-1.39-.1-1.25 0-1.55.89-1.55 2.08v1.12c0 1.19.3 2.08 1.55 2.08.52 0 1.12-.04 1.39-.1V66.6zM254.7 69.79h-4.73v.04c0 .84.35 1.84 1.74 1.84 1.06 0 2.06-.09 2.67-.15h.04c.14 0 .26.07.26.22v.96c0 .23-.04.33-.3.38-.94.17-1.51.25-2.82.25-1.45 0-3.51-.78-3.51-3.64v-1.07c0-2.26 1.26-3.69 3.48-3.69 2.24 0 3.45 1.52 3.45 3.69v.81c.01.23-.08.36-.28.36zm-1.64-1.42c0-1.13-.62-1.78-1.52-1.78s-1.55.64-1.55 1.78v.06h3.08v-.06zM260.84 66.55c-.78 0-1.39.2-2 .52v5.83c0 .16-.13.3-.29.3h-1.33c-.16 0-.29-.15-.29-.3v-7.59c0-.16.13-.29.29-.29h1.26c.16 0 .29.13.29.29v.3c.71-.55 1.5-.7 2.08-.7.16 0 .29.13.29.29v1.04c-.01.18-.14.31-.3.31zM264.36 73.21h-1.35c-.16 0-.29-.15-.29-.3V62.46c0-.16.13-.29.29-.29h1.35c.16 0 .28.13.28.29v10.45c0 .16-.12.3-.28.3zM272.66 73.21h-1.23c-.16 0-.29-.13-.29-.29v-.23c-.67.41-1.35.64-2.05.64-1.2 0-2.51-.46-2.51-2.42v-.06c0-1.65 1.02-2.51 3.54-2.51h.91v-.64c0-.94-.42-1.18-1.28-1.18-.93 0-1.89.06-2.37.12h-.07c-.15 0-.26-.04-.26-.25v-.93c0-.16.09-.26.28-.3.58-.12 1.42-.23 2.42-.23 2.06 0 3.19.91 3.19 2.77v5.22c.01.16-.12.29-.28.29zm-1.62-3.59h-.91c-1.32 0-1.61.42-1.61 1.23v.06c0 .71.32.9 1.04.9.52 0 1.06-.17 1.48-.41v-1.78zM281.54 73.21h-1.33c-.16 0-.29-.15-.29-.3v-4.73c0-1.26-.12-1.63-1.23-1.63-.49 0-1.03.2-1.64.52v5.83c0 .16-.13.3-.29.3h-1.33c-.16 0-.29-.15-.29-.3v-7.59c0-.16.13-.29.29-.29h1.26c.16 0 .29.13.29.29v.3c.84-.54 1.39-.7 2.35-.7 2.09 0 2.51 1.41 2.51 3.25v4.73c-.01.18-.14.32-.3.32zM290.1 72.95c-.9.23-1.99.38-2.92.38-2.34 0-3.47-1.38-3.47-3.64v-1.12c0-2.26 1.13-3.64 3.47-3.64.35 0 .86.03 1.39.1v-2.57c0-.16.13-.29.29-.29h1.33c.16 0 .29.13.29.29v10.1c.01.22-.05.31-.38.39zm-1.52-6.35c-.41-.06-1.04-.1-1.39-.1-1.25 0-1.55.89-1.55 2.08v1.12c0 1.19.3 2.08 1.55 2.08.52 0 1.12-.04 1.39-.1V66.6zM295.32 73.33c-.57 0-1.79-.07-2.6-.29-.17-.04-.28-.16-.28-.33v-.87c0-.12.1-.23.25-.23h.06c.7.09 2 .16 2.44.16.9 0 1.03-.3 1.03-.7 0-.28-.17-.45-.64-.74l-1.99-1.22c-.71-.44-1.22-1.16-1.22-2 0-1.45.91-2.18 2.76-2.18 1.18 0 1.84.13 2.58.29.17.04.26.16.26.33v.84c0 .17-.09.28-.23.28h-.06c-.41-.06-1.57-.17-2.39-.17-.7 0-1 .16-1 .61 0 .23.22.38.58.6l1.9 1.16c1.22.74 1.39 1.47 1.39 2.21.01 1.25-.94 2.25-2.84 2.25zM228.41 90.45h-1.44c-.16 0-.29-.13-.29-.29v-4.44h-4.12v4.44c0 .16-.13.29-.29.29h-1.44c-.16 0-.29-.13-.29-.29V79.95c0-.16.13-.28.29-.28h1.44c.16 0 .29.12.29.28v4h4.12v-4c0-.16.13-.28.29-.28h1.44c.16 0 .29.12.29.28v10.22c0 .15-.13.28-.29.28zM237.44 90.45h-1.33c-.16 0-.29-.13-.29-.29v-.33c-.75.49-1.35.73-2.28.73-.73 0-1.36-.19-1.79-.61-.54-.54-.73-1.44-.73-2.64v-4.73c0-.16.13-.3.29-.3h1.33c.16 0 .29.15.29.3v4.73c0 .72.06 1.15.33 1.39.2.17.45.26.9.26.54 0 1.23-.36 1.64-.58v-5.8c0-.16.13-.3.29-.3h1.33c.16 0 .29.15.29.3v7.59c.02.15-.12.28-.27.28zM241.61 81.18h-1.41c-.16 0-.3-.13-.3-.29v-1.28c0-.16.14-.29.3-.29h1.41c.16 0 .29.13.29.29v1.28c0 .16-.13.29-.29.29zm-.04 9.27h-1.33c-.16 0-.29-.15-.29-.3v-7.59c0-.16.13-.29.29-.29h1.33c.16 0 .29.13.29.29v7.59c0 .16-.13.3-.29.3zM246.73 90.57c-.57 0-1.79-.07-2.6-.29-.17-.04-.28-.16-.28-.33v-.87c0-.12.1-.23.25-.23h.06c.7.09 2 .16 2.44.16.9 0 1.03-.3 1.03-.7 0-.28-.17-.45-.64-.74L245 86.35c-.71-.44-1.22-1.16-1.22-2 0-1.45.91-2.18 2.76-2.18 1.18 0 1.84.13 2.58.29.17.04.26.16.26.33v.84c0 .17-.09.28-.23.28h-.06c-.41-.06-1.57-.17-2.39-.17-.7 0-1 .16-1 .61 0 .23.22.38.58.6l1.9 1.16c1.22.74 1.39 1.47 1.39 2.21.01 1.25-.94 2.25-2.84 2.25zM257.24 90.45H256c-.16 0-.29-.13-.29-.29v-.23c-.67.41-1.35.64-2.05.64-1.2 0-2.51-.46-2.51-2.42v-.06c0-1.65 1.02-2.51 3.54-2.51h.91v-.64c0-.94-.42-1.18-1.28-1.18-.93 0-1.89.06-2.37.12h-.07c-.15 0-.26-.04-.26-.25v-.93c0-.16.09-.26.28-.3.58-.12 1.42-.23 2.42-.23 2.06 0 3.19.91 3.19 2.77v5.22c.02.16-.11.29-.27.29zm-1.63-3.6h-.91c-1.32 0-1.61.42-1.61 1.23v.06c0 .71.32.9 1.04.9.52 0 1.06-.17 1.48-.41v-1.78zM263.62 83.79c-.78 0-1.39.2-2 .52v5.83c0 .16-.13.3-.29.3H260c-.16 0-.29-.15-.29-.3v-7.59c0-.16.13-.29.29-.29h1.26c.16 0 .29.13.29.29v.3c.71-.55 1.5-.7 2.08-.7.16 0 .29.13.29.29v1.04c-.01.18-.14.31-.3.31zM269.73 90.47c-.35.06-.67.1-.99.1-1.64 0-2.31-.36-2.31-2.31V83.7l-1.36-.2c-.16-.03-.29-.13-.29-.29v-.65c0-.16.13-.29.29-.29h1.36v-1.19c0-.16.13-.26.29-.29l1.35-.23h.06c.13 0 .23.07.23.22v1.49h1.31c.16 0 .29.13.29.29v.86c0 .16-.13.29-.29.29h-1.31v4.56c0 .73.04.81.57.81h.77c.19 0 .3.07.3.22v.91c.01.14-.08.23-.27.26zM274.25 90.57c-.57 0-1.79-.07-2.6-.29-.17-.04-.28-.16-.28-.33v-.87c0-.12.1-.23.25-.23h.06c.7.09 2 .16 2.44.16.9 0 1.03-.3 1.03-.7 0-.28-.17-.45-.64-.74l-1.99-1.22c-.71-.44-1.22-1.16-1.22-2 0-1.45.91-2.18 2.76-2.18 1.18 0 1.84.13 2.58.29.17.04.26.16.26.33v.84c0 .17-.09.28-.23.28h-.06c-.41-.06-1.57-.17-2.39-.17-.7 0-1 .16-1 .61 0 .23.22.38.58.6l1.9 1.16c1.22.74 1.39 1.47 1.39 2.21.01 1.25-.93 2.25-2.84 2.25zM285.38 87.03h-4.73v.04c0 .84.35 1.84 1.74 1.84 1.06 0 2.06-.09 2.67-.15h.04c.14 0 .26.07.26.22v.96c0 .23-.04.33-.3.38-.94.17-1.51.25-2.82.25-1.45 0-3.51-.78-3.51-3.64v-1.07c0-2.26 1.26-3.69 3.48-3.69 2.23 0 3.45 1.52 3.45 3.69v.81c.01.23-.07.36-.28.36zm-1.64-1.42c0-1.13-.62-1.78-1.52-1.78s-1.55.64-1.55 1.78v.06h3.08v-.06zM294.02 90.45h-1.33c-.16 0-.29-.15-.29-.3v-4.73c0-1.26-.12-1.63-1.23-1.63-.49 0-1.03.2-1.64.52v5.83c0 .16-.13.3-.29.3h-1.33c-.16 0-.29-.15-.29-.3v-7.59c0-.16.13-.29.29-.29h1.26c.16 0 .29.13.29.29v.3c.84-.54 1.39-.7 2.35-.7 2.09 0 2.51 1.41 2.51 3.25v4.73c-.01.18-.14.32-.3.32zM227.31 107.56c-.73.15-1.67.25-3.16.25-1.57 0-3.89-1.03-3.89-4.46v-2.09c0-3.44 2.21-4.47 3.93-4.47 1.39 0 2.64.17 3.12.26.19.04.28.12.28.3v.97c0 .2-.06.3-.29.3h-.04c-.67-.06-1.67-.12-3.06-.12-.97 0-1.9.68-1.9 2.74v2.09c0 2.06 1 2.73 1.86 2.73.54 0 .99-.01 1.44-.04v-3.7c0-.16.12-.29.28-.29h1.44c.16 0 .29.13.29.29v4.88c-.03.2-.11.32-.3.36zM236.3 104.27h-4.73v.04c0 .84.35 1.84 1.74 1.84 1.06 0 2.06-.09 2.67-.15h.04c.14 0 .26.07.26.22v.96c0 .23-.04.33-.3.38-.94.17-1.51.25-2.82.25-1.45 0-3.51-.78-3.51-3.64v-1.07c0-2.26 1.26-3.69 3.48-3.69 2.23 0 3.45 1.52 3.45 3.69v.81c.01.22-.07.36-.28.36zm-1.64-1.43c0-1.13-.62-1.79-1.52-1.79s-1.55.64-1.55 1.79v.06h3.08v-.06zM244.94 107.69h-1.33c-.16 0-.29-.15-.29-.3v-4.73c0-1.26-.12-1.62-1.23-1.62-.49 0-1.03.2-1.64.52v5.83c0 .16-.13.3-.29.3h-1.33c-.16 0-.29-.15-.29-.3V99.8c0-.16.13-.29.29-.29h1.26c.16 0 .29.13.29.29v.3c.84-.54 1.39-.7 2.35-.7 2.09 0 2.51 1.41 2.51 3.25v4.73c-.01.16-.15.31-.3.31zM250.62 107.81c-2.28 0-3.47-1.54-3.47-3.61v-1.18c0-2.08 1.19-3.61 3.47-3.61s3.47 1.54 3.47 3.61v1.18c0 2.07-1.19 3.61-3.47 3.61zm1.55-4.79c0-1.19-.54-1.96-1.55-1.96-1.02 0-1.55.77-1.55 1.96v1.18c0 1.19.54 1.96 1.55 1.96 1.02 0 1.55-.77 1.55-1.96v-1.18zM259.24 107.81c-2.28 0-3.47-1.54-3.47-3.61v-1.18c0-2.08 1.19-3.61 3.47-3.61s3.47 1.54 3.47 3.61v1.18c0 2.07-1.19 3.61-3.47 3.61zm1.55-4.79c0-1.19-.54-1.96-1.55-1.96-1.02 0-1.55.77-1.55 1.96v1.18c0 1.19.54 1.96 1.55 1.96 1.02 0 1.55-.77 1.55-1.96v-1.18zM268.57 107.71c-.35.06-.67.1-.99.1-1.64 0-2.31-.36-2.31-2.31v-4.56l-1.36-.2c-.16-.03-.29-.13-.29-.29v-.65c0-.16.13-.29.29-.29h1.36v-1.19c0-.16.13-.26.29-.29l1.35-.23h.06c.13 0 .23.07.23.22v1.49h1.31c.16 0 .29.13.29.29v.86c0 .16-.13.29-.29.29h-1.31v4.56c0 .73.04.81.57.81h.77c.19 0 .3.07.3.22v.91c0 .14-.08.23-.27.26zM273.09 107.81c-.57 0-1.79-.07-2.6-.29-.17-.04-.28-.16-.28-.33v-.87c0-.12.1-.23.25-.23h.06c.7.09 2 .16 2.44.16.9 0 1.03-.3 1.03-.7 0-.28-.17-.45-.64-.74l-1.99-1.22c-.71-.44-1.22-1.16-1.22-2 0-1.45.91-2.18 2.76-2.18 1.18 0 1.84.13 2.58.29.17.04.26.16.26.33v.84c0 .17-.09.28-.23.28h-.06c-.41-.06-1.57-.17-2.39-.17-.7 0-1 .16-1 .61 0 .23.22.38.58.59l1.9 1.16c1.22.74 1.39 1.47 1.39 2.21.01 1.26-.93 2.26-2.84 2.26zM282.71 107.62c-.33.09-.99.19-1.87.19-1.89 0-3.31-1.16-3.31-3.53v-1.35c0-2.37 1.42-3.53 3.31-3.53.88 0 1.54.1 1.87.19.25.06.31.15.31.38v.94c0 .14-.12.22-.26.22h-.04c-.58-.07-.93-.1-1.87-.1-.68 0-1.39.39-1.39 1.9v1.35c0 1.51.71 1.9 1.39 1.9.94 0 1.29-.03 1.87-.1h.04c.15 0 .26.07.26.22v.94c0 .23-.06.32-.31.38zM291.32 107.69h-1.33c-.16 0-.29-.15-.29-.3v-4.77c0-1.26-.22-1.58-1.19-1.58-.49 0-1.07.17-1.68.49v5.86c0 .16-.13.3-.29.3h-1.33c-.16 0-.29-.15-.29-.3V96.94c0-.16.13-.29.29-.29h1.33c.16 0 .29.13.29.29v3c.55-.33 1.16-.54 2.19-.54 2 0 2.6 1.42 2.6 3.21v4.77c-.01.16-.14.31-.3.31zM299.56 107.69h-1.23c-.16 0-.29-.13-.29-.29v-.23c-.67.41-1.35.64-2.05.64-1.2 0-2.51-.46-2.51-2.42v-.06c0-1.65 1.02-2.51 3.54-2.51h.91v-.64c0-.94-.42-1.17-1.28-1.17-.93 0-1.89.06-2.37.12h-.07c-.15 0-.26-.04-.26-.25v-.93c0-.16.09-.26.28-.3.58-.12 1.42-.23 2.42-.23 2.06 0 3.19.91 3.19 2.77v5.22c.01.15-.12.28-.28.28zm-1.63-3.6h-.91c-1.32 0-1.61.42-1.61 1.23v.06c0 .71.32.9 1.04.9.52 0 1.06-.17 1.48-.41v-1.78zM305.33 107.81c-.35 0-.86-.03-1.39-.1v2.57c0 .16-.13.29-.29.29h-1.33c-.16 0-.29-.13-.29-.29v-10.1c0-.22.06-.3.39-.39.9-.23 1.99-.38 2.92-.38 2.34 0 3.47 1.38 3.47 3.64v1.12c-.01 2.26-1.14 3.64-3.48 3.64zm1.55-4.76c0-1.19-.3-2.08-1.55-2.08-.52 0-1.12.04-1.39.1v5.06c.41.06 1.04.1 1.39.1 1.25 0 1.55-.88 1.55-2.08v-1.1z" class="st0"/><linearGradient id="SVGID_1_" x1="23.4322" x2="203.4627" y1="84.8925" y2="84.8925" gradientUnits="userSpaceOnUse"><stop offset="0" style="stop-color:#e50051"/><stop offset=".5" style="stop-color:#a066a7"/><stop offset="1" style="stop-color:#0086cd"/></linearGradient><path d="m63.52 57.9 13.93 13.92v37.58l-2.48 2.48h-14.7l-2.48-2.48V77.54h-14.7v31.86l-2.48 2.48h-14.7l-2.48-2.48V60.38l2.48-2.48h8.98l2.48 2.48h3.25l2.48-2.48h20.42zm48.3.01-5.73 5.71V31.76l-2.48-2.48h-14.7l-2.48 2.48v77.64l2.48 2.48h14.71l2.48-2.48V77.54h14.71l.01 31.86 2.46 2.46h14.71l2.46-2.46V71.82l-13.92-13.91h-14.71zm89.17-.01 2.48 2.48v66.19l-13.93 13.92h-26.16l-8.2-8.2v-8.97l2.48-2.48h8.98l5.73 5.72h8.2l3.25-3.25v-11.44h-20.44l-13.93-13.92V71.82l13.93-13.92h20.43l2.48 2.48h3.25l2.48-2.48h8.97zM183.8 77.55h-14.7v14.69h14.71V77.55zm-2.47 14.69h2.48v-2.48l-2.48 2.48zm2.47-12.22v-2.48h-2.48l2.48 2.48zm-12.23-2.47h-2.48v2.48l2.48-2.48zm-50.78 2.47v-2.48h-2.48l2.48 2.48zm-12.23-2.47h-2.48v2.48l2.48-2.48zM57.8 80.02v-2.48h-2.48l2.48 2.48zm-12.23-2.47h-2.48v2.48l2.48-2.48zM169.1 89.76v2.48h2.48l-2.48-2.48z" style="fill:url(#SVGID_1_)"/></svg>
