<?xml version="1.0" encoding="UTF-8"?> <!-- Generator: Adobe Illustrator 25.0.0, SVG Export Plug-In . SVG Version: 6.00 Build 0) --> <svg xmlns="http://www.w3.org/2000/svg" xmlns:xlink="http://www.w3.org/1999/xlink" version="1.1" id="Layer_2_xA0_Afbeelding_1_" x="0px" y="0px" viewBox="0 0 177 167" style="enable-background:new 0 0 177 167;" xml:space="preserve"> <style type="text/css"> .st0{fill:#D60F3C;} .st1{fill:#E84E0F;} .st2{opacity:0.6;fill:#ED6A1D;enable-background:new ;} .st3{fill:#95254C;} .st4{fill:none;stroke:#95254C;stroke-miterlimit:10;} .st5{fill:#FFFFFF;} </style> <g> <g> <path class="st0" d="M130.1,62c21,27.1,26.7,57.3,12,72.6c-17.4,18-56.5,8.4-87.5-21.5C30.9,90.2,18.9,62,22.4,42 c-1.1,1.2-2.1,2.5-3,3.9C5.3,68,24.8,105.6,63,130c38.1,24.4,80.5,26.2,94.6,4.2C169.5,115.5,157.3,85.6,130.1,62z"></path> <path class="st1" d="M114,50.1c5.8,3.7,11.2,7.7,16.1,12c-3.7-4.8-8-9.6-12.6-14.1C86.5,18.1,47.3,8.5,30,26.5 c-4,4.2-6.5,9.5-7.6,15.6C38.8,24.2,78.3,27.2,114,50.1z"></path> <path class="st2" d="M54.6,113.1c31,29.9,70.1,39.5,87.5,21.5c14.7-15.3,9-45.5-12-72.6c-4.9-4.2-10.3-8.2-16.1-12 c-35.8-22.8-75.2-25.9-91.6-8C18.9,62,30.9,90.2,54.6,113.1z"></path> <path class="st3" d="M54.6,113.1c31,29.9,70.1,39.5,87.5,21.5c14.7-15.3,9-45.5-12-72.6c-4.9-4.2-10.3-8.2-16.1-12 c-35.8-22.8-75.2-25.9-91.6-8C18.9,62,30.9,90.2,54.6,113.1z"></path> </g> <ellipse transform="matrix(0.5384 -0.8427 0.8427 0.5384 -35.0163 116.0976)" class="st4" cx="88.5" cy="90" rx="47.4" ry="82"></ellipse> <ellipse transform="matrix(0.6942 -0.7197 0.7197 0.6942 -31.6786 86.5076)" class="st4" cx="86" cy="80.5" rx="45.3" ry="77.9"></ellipse> </g> <g> <path class="st5" d="M59.9,112.2V83.5h5.2v5.4c2.7-4,6.1-6,10.1-6c2.5,0,4.5,0.8,5.9,2.4c1.5,1.6,2.2,3.7,2.2,6.4v20.6h-5.2V93.3 c0-2.1-0.3-3.7-0.9-4.6s-1.7-1.4-3.1-1.4c-3.2,0-6.2,2.1-9,6.3v18.6H59.9z"></path> <path class="st5" d="M97.4,112.2L86.7,83.5h5.2l8.3,22.3l8.8-22.3h4.9l-11.3,28.7H97.4z"></path> <path class="st5" d="M129.1,112.8c-2.6,0-4.7-0.8-6.2-2.3s-2.2-3.6-2.2-6.3V87.4h-3.6v-3.9h3.6v-5.2l5.2-0.5v5.7h7.5v3.9h-7.5v15.9 c0,3.8,1.6,5.6,4.9,5.6c0.7,0,1.5-0.1,2.5-0.3v3.6C131.6,112.6,130.2,112.8,129.1,112.8z"></path> </g> </svg> 