<svg fill="none" height="147" viewBox="0 0 646 147" width="646" xmlns="http://www.w3.org/2000/svg">
  <g fill="#6b868e">
    <path d="m123.482 133.845c.433 0 .65-.217.65-.651v-18.064h5.826c.465 0 .681-.217.681-.651v-1.642c0-.465-.216-.682-.681-.682h-15.276c-.465 0-.682.217-.682.682v1.642c0 .434.217.651.682.651h5.856v18.064c0 .434.217.651.682.651z" />
    <path d="m150.819 133.845c.434 0 .651-.217.651-.651v-20.388c0-.434-.217-.651-.681-.651h-2.262c-.434 0-.651.217-.651.651v8.366h-9.575v-8.366c0-.434-.217-.651-.651-.651h-2.261c-.434 0-.651.217-.651.651v20.388c0 .434.217.651.651.651h2.292c.403 0 .62-.217.62-.651v-8.862h9.575v8.862c0 .434.217.651.682.651z" />
    <path d="m166.334 134c5.918 0 6.693-1.332 6.693-5.051v-16.143c0-.434-.217-.651-.651-.651h-2.2c-.465 0-.682.217-.682.651v15.833c0 1.891-.372 2.386-2.757 2.386h-3.502c-2.324 0-2.758-.464-2.758-2.448v-15.771c0-.434-.216-.651-.681-.651h-2.2c-.434 0-.651.217-.651.651v16.143c0 3.719.713 5.051 6.693 5.051z" />
    <path d="m181.44 133.845c.403 0 .62-.217.62-.651v-20.388c0-.434-.217-.651-.62-.651h-2.293c-.433 0-.65.217-.65.651v20.388c0 .434.217.651.65.651z" />
    <path d="m197.054 133.969c4.74 0 6.197-1.239 6.197-5.608v-1.333c0-3.749-1.426-5.051-4.896-5.453l-5.608-.651c-1.705-.186-2.293-.62-2.293-2.076v-1.302c0-2.045.588-2.602 2.85-2.602h3.657c2.107 0 2.695.619 2.695 1.859v.991c0 .434.217.651.682.651h1.983c.434 0 .651-.217.651-.651v-1.177c0-3.378-1.735-4.617-5.918-4.617h-3.719c-4.926 0-6.197 1.054-6.197 5.361v1.363c0 3.532 1.395 4.648 4.927 4.989l5.67.588c1.736.186 2.262.837 2.262 2.355v1.767c0 1.89-.619 2.571-2.819 2.571h-4.215c-1.952 0-2.571-.805-2.571-2.386v-1.053c0-.434-.217-.651-.682-.651h-1.983c-.434 0-.651.217-.651.651v1.022c0 3.657 1.426 5.392 6.042 5.392z" />
    <path d="m221.691 133.845c.403 0 .62-.217.62-.651v-20.388c0-.434-.217-.651-.62-.651h-2.293c-.434 0-.651.217-.651.651v20.388c0 .434.217.651.651.651z" />
    <path d="m244.152 133.845c.434 0 .651-.217.651-.651v-20.388c0-.434-.217-.651-.682-.651h-1.952c-.434 0-.651.217-.651.651v13.509c0 .093-.031.155-.124.155h-.124c-.093 0-.186-.062-.279-.185l-8.924-13.572c-.216-.372-.588-.558-1.115-.558h-2.169c-.558 0-.837.279-.837.868v20.171c0 .434.217.651.651.651h1.952c.434 0 .651-.217.651-.651v-15.245c0-.124.062-.186.155-.186h.093c.093 0 .155.062.217.155l10.38 15.369c.248.372.589.558 1.022.558z" />
    <path d="m272.399 134c3.254 0 4.741-1.27 4.741-4.927v-5.856c0-.713-.341-1.054-1.023-1.054h-5.949c-.465 0-.682.217-.682.651v1.24c0 .433.217.65.682.65h3.285c.278 0 .402.155.402.434v3.501c0 1.705-.712 2.386-2.293 2.386h-4.338c-2.695 0-3.284-.805-3.284-4.864v-6.291c0-3.966.589-4.864 3.284-4.864h4.183c1.984 0 2.448.774 2.448 2.107v.774c0 .434.217.651.651.651h1.952c.465 0 .682-.217.682-.651v-.929c0-3.316-1.704-4.958-5.113-4.958h-4.865c-5.298 0-6.662 1.766-6.662 7.932v6.229c0 6.073 1.364 7.839 6.662 7.839z" />
    <path d="m295.746 133.845c.434 0 .651-.217.651-.651v-1.735c0-.434-.217-.651-.651-.651h-7.932c-1.797 0-2.479-.557-2.479-2.943v-3.533h9.792c.465 0 .681-.217.681-.65v-1.581c0-.464-.216-.681-.681-.681h-9.792v-3.347c0-2.262.496-2.85 2.479-2.85h7.623c.433 0 .65-.217.65-.682v-1.704c0-.465-.217-.682-.65-.682h-8.584c-3.78 0-4.957 1.394-4.957 6.259v9.172c0 4.865 1.177 6.259 4.957 6.259z" />
    <path d="m315.121 133.845c.434 0 .651-.217.651-.651v-1.642c0-.465-.217-.682-.651-.682h-9.885c-.093 0-.155-.062-.155-.155l10.195-15.616c.341-.496.403-.651.403-1.271v-.991c0-.465-.217-.682-.682-.682h-13.634c-.434 0-.651.217-.651.682v1.673c0 .434.217.651.651.651h9.575c.124 0 .186.062.186.185l-10.195 15.369c-.372.527-.403.62-.403 1.333v1.146c0 .434.217.651.62.651z" />
    <path d="m330.251 134c5.206 0 6.662-1.642 6.662-7.932v-6.136c0-6.29-1.456-7.932-6.662-7.932h-3.501c-5.33 0-6.693 1.642-6.693 7.932v6.136c0 6.29 1.363 7.932 6.693 7.932zm3.161-7.901c0 4.183-.682 4.926-3.781 4.926h-2.293c-3.222 0-3.749-.743-3.749-4.926v-6.353c0-3.966.62-4.771 3.749-4.771h2.293c3.161 0 3.781.805 3.781 4.771z" />
    <path d="m358.332 133.845c.434 0 .651-.217.651-.651v-20.388c0-.434-.217-.651-.682-.651h-1.952c-.434 0-.651.217-.651.651v13.509c0 .093-.031.155-.124.155h-.124c-.093 0-.186-.062-.279-.185l-8.924-13.572c-.216-.372-.588-.558-1.115-.558h-2.169c-.558 0-.837.279-.837.868v20.171c0 .434.217.651.651.651h1.952c.434 0 .651-.217.651-.651v-15.245c0-.124.062-.186.155-.186h.093c.093 0 .155.062.217.155l10.38 15.369c.248.372.589.558 1.022.558z" />
    <path d="m374.403 133.845c5.237 0 6.724-1.642 6.724-7.932v-5.826c0-6.29-1.487-7.932-6.724-7.932h-8.335c-1.085 0-1.425.434-1.425 1.549v18.592c0 1.115.34 1.549 1.425 1.549zm3.192-8.118c0 4.307-.682 5.174-3.78 5.174h-5.02c-.403 0-.62-.216-.62-.619v-14.564c0-.403.217-.619.62-.619h5.02c3.098 0 3.78.96 3.78 5.608z" />
    <path d="m402.483 133.845c.434 0 .65-.217.65-.651v-20.388c0-.434-.216-.651-.681-.651h-2.262c-.434 0-.651.217-.651.651v8.366h-9.575v-8.366c0-.434-.216-.651-.65-.651h-2.262c-.434 0-.651.217-.651.651v20.388c0 .434.217.651.651.651h2.293c.403 0 .619-.217.619-.651v-8.862h9.575v8.862c0 .434.217.651.682.651z" />
    <path d="m422.242 133.845c.434 0 .651-.217.651-.651v-1.735c0-.434-.217-.651-.651-.651h-7.932c-1.797 0-2.479-.557-2.479-2.943v-3.533h9.791c.465 0 .682-.217.682-.65v-1.581c0-.464-.217-.681-.682-.681h-9.791v-3.347c0-2.262.496-2.85 2.479-2.85h7.622c.434 0 .651-.217.651-.682v-1.704c0-.465-.217-.682-.651-.682h-8.583c-3.78 0-4.958 1.394-4.958 6.259v9.172c0 4.865 1.178 6.259 4.958 6.259z" />
    <path d="m430.864 133.845c.403 0 .62-.217.62-.651v-20.388c0-.434-.217-.651-.62-.651h-2.293c-.433 0-.65.217-.65.651v20.388c0 .434.217.651.65.651z" />
    <path d="m446.942 133.845c5.237 0 6.724-1.642 6.724-7.932v-5.826c0-6.29-1.487-7.932-6.724-7.932h-8.335c-1.084 0-1.425.434-1.425 1.549v18.592c0 1.115.341 1.549 1.425 1.549zm3.192-8.118c0 4.307-.682 5.174-3.78 5.174h-5.02c-.403 0-.62-.216-.62-.619v-14.564c0-.403.217-.619.62-.619h5.02c3.098 0 3.78.96 3.78 5.608z" />
  </g>
  <path d="m591.38 100c2.511 0 4.62 2.109 4.62 4.62v36.76c0 2.511-2.109 4.62-4.62 4.62h-36.76c-2.511 0-4.62-2.109-4.62-4.62v-36.76c0-2.511 2.109-4.62 4.62-4.62z" fill="#98c0d2" />
  <g fill="#6b868e">
    <path d="m19.8254 95.8546c.907 0 1.3605-.4535 1.3605-1.3605v-37.7718h12.1803c.9718 0 1.4253-.4536 1.4253-1.3606v-3.4338c0-.9718-.4535-1.4254-1.4253-1.4254h-31.94085c-.971829 0-1.42535.4536-1.42535 1.4254v3.4338c0 .907.453521 1.3606 1.42535 1.3606h12.24505v37.7718c0 .907.4535 1.3605 1.4254 1.3605z" />
    <path d="m76.9862 95.8546c.9071 0 1.3606-.4535 1.3606-1.3605v-42.631c0-.907-.4535-1.3606-1.4254-1.3606h-4.7295c-.9071 0-1.3606.4536-1.3606 1.3606v17.493h-20.0197v-17.493c0-.907-.4535-1.3606-1.3606-1.3606h-4.7296c-.907 0-1.3605.4536-1.3605 1.3606v42.631c0 .907.4535 1.3605 1.3605 1.3605h4.7944c.8423 0 1.2958-.4535 1.2958-1.3605v-18.5296h20.0197v18.5296c0 .907.4535 1.3605 1.4253 1.3605z" />
    <path d="m109.425 96.1786c12.375 0 13.994-2.7859 13.994-10.5606v-33.7549c0-.907-.453-1.3606-1.36-1.3606h-4.6c-.972 0-1.425.4536-1.425 1.3606v33.107c0 3.9522-.778 4.9888-5.767 4.9888h-7.321c-4.8589 0-5.7659-.9719-5.7659-5.1183v-32.9775c0-.907-.4536-1.3606-1.4254-1.3606h-4.6c-.907 0-1.3606.4536-1.3606 1.3606v33.7549c0 7.7747 1.4902 10.5606 13.9949 10.5606z" />
    <path d="m141.012 95.8546c.842 0 1.295-.4535 1.295-1.3605v-42.631c0-.907-.453-1.3606-1.295-1.3606h-4.795c-.907 0-1.36.4536-1.36 1.3606v42.631c0 .907.453 1.3605 1.36 1.3605z" />
    <path d="m173.658 96.1138c9.912 0 12.957-2.5915 12.957-11.7268v-2.7859c0-7.8394-2.98-10.5605-10.236-11.4028l-11.727-1.3606c-3.563-.3887-4.794-1.2957-4.794-4.3408v-2.7211c0-4.2761 1.231-5.4423 5.96-5.4423h7.645c4.406 0 5.637 1.2958 5.637 3.8873v2.0733c0 .907.453 1.3605 1.425 1.3605h4.147c.907 0 1.36-.4535 1.36-1.3605v-2.462c0-7.062-3.628-9.6535-12.374-9.6535h-7.775c-10.301 0-12.958 2.2028-12.958 11.2084v2.8507c0 7.386 2.916 9.7184 10.302 10.431l11.856 1.231c3.628.3887 4.73 1.7493 4.73 4.924v3.6929c0 3.9521-1.296 5.3775-5.896 5.3775h-8.812c-4.081 0-5.377-1.6845-5.377-4.9888v-2.2028c0-.907-.454-1.3605-1.425-1.3605h-4.147c-.907 0-1.36.4535-1.36 1.3605v2.1381c0 7.645 2.98 11.2732 12.633 11.2732z" />
    <path d="m229.724 95.8546c.842 0 1.296-.4535 1.296-1.3605l-11.014-42.3718c-.324-1.1015-1.296-1.6198-2.786-1.6198h-9.654c-1.555 0-2.462.5183-2.786 1.6198l-11.208 42.3718c0 .907.454 1.3605 1.296 1.3605h4.276c1.101 0 1.684-.4535 1.814-1.3605l2.397-9.4592h17.299l2.462 9.4592c.129.907.583 1.3605 1.295 1.3605zm-10.366-16.3915h-14.642l5.831-22.5465c.064-.1943.259-.3239.453-.3239h2.397c.195 0 .389.1296.454.3239z" />
    <path d="m273.325 95.8546c.584 0 .843-.2591.843-.7774 0-.6479-.259-.9071-.259-8.293v-4.6c0-5.2479-2.009-7.3211-6.739-8.4225 4.277-1.1662 6.285-3.4986 6.285-9.2648v-3.1099c0-7.969-2.656-10.8845-10.625-10.8845h-16.975c-4.924 0-5.896 1.1662-5.896 6.0254v37.9662c0 .907.454 1.3605 1.361 1.3605h4.665c.907 0 1.36-.4535 1.36-1.3605v-17.4282h13.087c4.471 0 5.961 1.3606 5.961 5.7662v4.1465c0 7.3211.259 8.876 1.685 8.876zm-7.386-29.9971c0 4.0817-1.036 5.507-5.442 5.507h-13.152v-13.3465c0-1.0366.518-1.5549 1.49-1.5549h12.634c3.628 0 4.47 1.2958 4.47 5.3127z" />
    <path d="m300.58 95.8546c.907 0 1.361-.4535 1.361-1.3605v-37.7718h12.18c.972 0 1.425-.4536 1.425-1.3606v-3.4338c0-.9718-.453-1.4254-1.425-1.4254h-31.941c-.972 0-1.425.4536-1.425 1.4254v3.4338c0 .907.453 1.3606 1.425 1.3606h12.245v37.7718c0 .907.454 1.3605 1.426 1.3605z" />
    <path d="m343.552 96.1138c9.913 0 12.958-2.5915 12.958-11.7268v-2.7859c0-7.8394-2.98-10.5605-10.237-11.4028l-11.726-1.3606c-3.564-.3887-4.795-1.2957-4.795-4.3408v-2.7211c0-4.2761 1.231-5.4423 5.961-5.4423h7.645c4.406 0 5.637 1.2958 5.637 3.8873v2.0733c0 .907.453 1.3605 1.425 1.3605h4.146c.907 0 1.361-.4535 1.361-1.3605v-2.462c0-7.062-3.628-9.6535-12.375-9.6535h-7.774c-10.302 0-12.958 2.2028-12.958 11.2084v2.8507c0 7.386 2.915 9.7184 10.301 10.431l11.857 1.231c3.628.3887 4.729 1.7493 4.729 4.924v3.6929c0 3.9521-1.296 5.3775-5.895 5.3775h-8.812c-4.081 0-5.377-1.6845-5.377-4.9888v-2.2028c0-.907-.454-1.3605-1.426-1.3605h-4.146c-.907 0-1.361.4535-1.361 1.3605v2.1381c0 7.645 2.981 11.2732 12.634 11.2732z" />
    <path d="m371.746 95.8546c.842 0 1.296-.4535 1.296-1.3605v-7.1268c0-.907-.454-1.3605-1.296-1.3605h-4.276c-.907 0-1.361.4535-1.361 1.3605v7.1268c0 .907.454 1.3605 1.361 1.3605z" />
    <path d="m417.795 95.8546c.907 0 1.36-.4535 1.36-1.3605v-42.631c0-.907-.453-1.3606-1.425-1.3606h-4.082c-.907 0-1.36.4536-1.36 1.3606v28.2479c0 .1943-.065.3239-.26.3239h-.259c-.194 0-.388-.1296-.583-.3887l-18.659-28.3775c-.453-.7774-1.231-1.1662-2.332-1.1662h-4.536c-1.166 0-1.749.5831-1.749 1.8141v42.1775c0 .907.454 1.3605 1.361 1.3605h4.081c.907 0 1.361-.4535 1.361-1.3605v-31.8761c0-.2591.13-.3887.324-.3887h.194c.195 0 .324.1296.454.3239l21.704 32.1352c.518.7775 1.231 1.1662 2.138 1.1662z" />
    <path d="m456.841 95.8546c.907 0 1.36-.4535 1.36-1.3605v-3.4338c0-.9719-.453-1.4254-1.36-1.4254h-13.995c-4.146 0-5.183-.9718-5.183-5.831v-31.9408c0-.907-.453-1.3606-1.361-1.3606h-4.405c-.907 0-1.361.4536-1.361 1.3606v31.7465c0 9.3296 2.462 12.245 10.431 12.245z" />
  </g>
  <path d="m641.38 50c2.511 0 4.62 2.1092 4.62 4.6201v36.7598c0 2.5109-2.109 4.6201-4.62 4.6201h-36.76c-2.511 0-4.62-2.1092-4.62-4.6201v-36.7598c0-2.5109 2.109-4.6201 4.62-4.6201z" fill="#ebbf37" />
  <path d="m591.38 50c2.511 0 4.62 2.1092 4.62 4.6201v36.7598c0 2.5109-2.109 4.6201-4.62 4.6201h-36.76c-2.511 0-4.62-2.1092-4.62-4.6201v-36.7598c0-2.5109 2.109-4.6201 4.62-4.6201z" fill="#4f987a" />
  <path d="m546 54.6201c0-2.5109-2.109-4.6201-4.62-4.6201h-36.76c-2.511 0-4.62 2.1092-4.62 4.6201v36.7598c0 2.5109 2.109 4.6201 4.62 4.6201h36.76c2.511 0 4.62-2.1092 4.62-4.6201z" fill="#6b868e" />
  <path d="m591.38 0c2.511 0 4.62 2.10917 4.62 4.62009v36.75981c0 2.5109-2.109 4.6201-4.62 4.6201h-36.76c-2.511 0-4.62-2.1092-4.62-4.6201v-36.75981c0-2.51092 2.109-4.62009 4.62-4.62009z" fill="#84af81" />
</svg>