<svg width="19" height="20" viewBox="0 0 19 20" fill="none" xmlns="http://www.w3.org/2000/svg">
<path d="M5.83366 18.3333V9.16663M1.66699 10.8333V16.6666C1.66699 17.5871 2.41318 18.3333 3.33366 18.3333H14.5222C15.7561 18.3333 16.8055 17.433 16.9931 16.2134L17.8906 10.3801C18.1235 8.86571 16.9518 7.49996 15.4196 7.49996H12.5003C12.0401 7.49996 11.667 7.12686 11.667 6.66663V3.72149C11.667 2.58662 10.747 1.66663 9.61213 1.66663C9.34144 1.66663 9.09614 1.82604 8.98621 2.0734L6.05361 8.67174C5.91986 8.97268 5.62142 9.16663 5.2921 9.16663H3.33366C2.41318 9.16663 1.66699 9.91282 1.66699 10.8333Z" stroke="#93969F" stroke-width="1.66667" stroke-linecap="round" stroke-linejoin="round"/>
</svg>
