<svg width="26" height="21" viewBox="0 0 26 21" fill="none" xmlns="http://www.w3.org/2000/svg">
<path d="M8.44533 20.8089C5.57901 20.8089 2.90711 19.9752 0.658203 18.5367C2.5676 18.6603 5.93726 18.3644 8.03318 16.3652C4.88023 16.2205 3.45831 13.8023 3.27284 12.7689C3.54074 12.8723 4.8184 12.9963 5.53967 12.7069C1.91274 11.7975 1.35633 8.61464 1.47998 7.64324C2.16003 8.11861 3.31405 8.28395 3.76742 8.24262C0.387779 5.82444 1.60363 2.18685 2.20124 1.40146C4.6266 4.76158 8.26145 6.64875 12.7582 6.75372C12.6734 6.38187 12.6287 5.99472 12.6287 5.59709C12.6287 2.74342 14.9352 0.430054 17.7806 0.430054C19.2672 0.430054 20.6068 1.06158 21.5471 2.07173C22.5405 1.83894 24.0356 1.294 24.7665 0.822749C24.3981 2.14551 23.2511 3.24896 22.5574 3.65795C22.5631 3.67186 22.5517 3.64397 22.5574 3.65795C23.1668 3.56576 24.8158 3.24886 25.4672 2.80689C25.145 3.55 23.929 4.78556 22.9311 5.47728C23.1168 13.6657 16.8518 20.8089 8.44533 20.8089Z" fill="#47ACDF"/>
</svg>
