<svg width="26" height="27" viewBox="0 0 26 27" fill="none" xmlns="http://www.w3.org/2000/svg">
<path fill-rule="evenodd" clip-rule="evenodd" d="M13 26.125C19.7655 26.125 25.25 20.6405 25.25 13.875C25.25 7.10951 19.7655 1.625 13 1.625C6.23451 1.625 0.75 7.10951 0.75 13.875C0.75 16.072 1.32837 18.134 2.34117 19.9168L0.75 26.125L7.1505 24.6408C8.8887 25.5873 10.8816 26.125 13 26.125ZM13 24.2404C18.7246 24.2404 23.3654 19.5996 23.3654 13.875C23.3654 8.15036 18.7246 3.50962 13 3.50962C7.27536 3.50962 2.63462 8.15036 2.63462 13.875C2.63462 16.0853 3.32644 18.134 4.50536 19.8164L3.57692 23.2981L7.11994 22.4123C8.79069 23.5652 10.8165 24.2404 13 24.2404Z" fill="#BFC8D0"/>
<path d="M23.5 13C23.5 18.799 18.799 23.5 13 23.5C10.7881 23.5 8.73603 22.8161 7.04357 21.6482L3.45455 22.5455L4.39504 19.0186C3.20081 17.3143 2.5 15.239 2.5 13C2.5 7.20101 7.20101 2.5 13 2.5C18.799 2.5 23.5 7.20101 23.5 13Z" fill="url(#paint0_linear_24_7541)"/>
<path fill-rule="evenodd" clip-rule="evenodd" d="M13 25.25C19.7655 25.25 25.25 19.7655 25.25 13C25.25 6.23451 19.7655 0.75 13 0.75C6.23451 0.75 0.75 6.23451 0.75 13C0.75 15.197 1.32837 17.259 2.34117 19.0418L0.75 25.25L7.1505 23.7658C8.8887 24.7123 10.8816 25.25 13 25.25ZM13 23.3654C18.7246 23.3654 23.3654 18.7246 23.3654 13C23.3654 7.27536 18.7246 2.63462 13 2.63462C7.27536 2.63462 2.63462 7.27536 2.63462 13C2.63462 15.2103 3.32644 17.259 4.50536 18.9414L3.57692 22.4231L7.11994 21.5373C8.79069 22.6902 10.8165 23.3654 13 23.3654Z" fill="white"/>
<path d="M9.93752 7.31251C9.64626 6.7275 9.19946 6.77929 8.74809 6.77929C7.94142 6.77929 6.68359 7.74554 6.68359 9.54382C6.68359 11.0176 7.33302 12.6309 9.52137 15.0442C11.6333 17.3733 14.4082 18.5781 16.7119 18.5371C19.0156 18.496 19.4896 16.5136 19.4896 15.8441C19.4896 15.5474 19.3055 15.3993 19.1786 15.3591C18.3936 14.9824 16.9457 14.2804 16.6162 14.1485C16.2868 14.0166 16.1148 14.195 16.0078 14.292C15.7091 14.5767 15.1168 15.4158 14.9141 15.6045C14.7113 15.7932 14.409 15.6977 14.2832 15.6264C13.8203 15.4406 12.5651 14.8823 11.5645 13.9124C10.3272 12.7129 10.2545 12.3002 10.0214 11.9329C9.83491 11.639 9.97177 11.4587 10.0401 11.3799C10.3067 11.0723 10.6748 10.5973 10.8399 10.3613C11.0049 10.1253 10.8739 9.767 10.7953 9.54382C10.4571 8.58399 10.1705 7.78051 9.93752 7.31251Z" fill="white"/>
<defs>
<linearGradient id="paint0_linear_24_7541" x1="23.7187" y1="3.92187" x2="0.00163225" y2="25.2945" gradientUnits="userSpaceOnUse">
<stop stop-color="#5BD066"/>
<stop offset="1" stop-color="#27B43E"/>
</linearGradient>
</defs>
</svg>
